<mxfile host="app.diagrams.net" modified="2023-05-12T05:28:49.695Z" agent="Mozilla/5.0 (Macintosh; Intel Mac OS X 10_15_7) AppleWebKit/537.36 (KHTML, like Gecko) Chrome/112.0.0.0 Safari/537.36" version="21.2.9" etag="78BKOsxH3tqKX-EGsRI-" type="github">
  <diagram name="第 1 页" id="DZePdf5fLUfHA1w15QhK">
    <mxGraphModel>
      <root>
        <mxCell id="0" />
        <mxCell id="1" parent="0" />
      </root>
    </mxGraphModel>
  </diagram>
</mxfile>
